<svg id="visual" viewBox="0 0 900 600" width="900" height="600" xmlns="http://www.w3.org/2000/svg" xmlns:xlink="http://www.w3.org/1999/xlink" version="1.1"><rect x="0" y="0" width="900" height="600" fill="#f3f0ff"></rect><path d="M0 395L21.5 402.8C43 410.7 86 426.3 128.8 435.7C171.7 445 214.3 448 257.2 441.7C300 435.3 343 419.7 385.8 420C428.7 420.3 471.3 436.7 514.2 442C557 447.3 600 441.7 642.8 433.8C685.7 426 728.3 416 771.2 418.7C814 421.3 857 436.7 878.5 444.3L900 452L900 601L878.5 601C857 601 814 601 771.2 601C728.3 601 685.7 601 642.8 601C600 601 557 601 514.2 601C471.3 601 428.7 601 385.8 601C343 601 300 601 257.2 601C214.3 601 171.7 601 128.8 601C86 601 43 601 21.5 601L0 601Z" fill="#5f3dc4"></path><path d="M0 477L21.5 471.5C43 466 86 455 128.8 455.8C171.7 456.7 214.3 469.3 257.2 472.3C300 475.3 343 468.7 385.8 460.8C428.7 453 471.3 444 514.2 445.5C557 447 600 459 642.8 460.8C685.7 462.7 728.3 454.3 771.2 450.7C814 447 857 448 878.5 448.5L900 449L900 601L878.5 601C857 601 814 601 771.2 601C728.3 601 685.7 601 642.8 601C600 601 557 601 514.2 601C471.3 601 428.7 601 385.8 601C343 601 300 601 257.2 601C214.3 601 171.7 601 128.8 601C86 601 43 601 21.5 601L0 601Z" fill="#6d4bd1"></path><path d="M0 475L21.5 479.5C43 484 86 493 128.8 491.5C171.7 490 214.3 478 257.2 472C300 466 343 466 385.8 470.7C428.7 475.3 471.3 484.7 514.2 489.3C557 494 600 494 642.8 496C685.7 498 728.3 502 771.2 502.5C814 503 857 500 878.5 498.5L900 497L900 601L878.5 601C857 601 814 601 771.2 601C728.3 601 685.7 601 642.8 601C600 601 557 601 514.2 601C471.3 601 428.7 601 385.8 601C343 601 300 601 257.2 601C214.3 601 171.7 601 128.8 601C86 601 43 601 21.5 601L0 601Z" fill="#7b59df"></path><path d="M0 523L21.5 526.3C43 529.7 86 536.3 128.8 534.8C171.7 533.3 214.3 523.7 257.2 521.8C300 520 343 526 385.8 524.8C428.7 523.7 471.3 515.3 514.2 513.8C557 512.3 600 517.7 642.8 522.2C685.7 526.7 728.3 530.3 771.2 527.8C814 525.3 857 516.7 878.5 512.3L900 508L900 601L878.5 601C857 601 814 601 771.2 601C728.3 601 685.7 601 642.8 601C600 601 557 601 514.2 601C471.3 601 428.7 601 385.8 601C343 601 300 601 257.2 601C214.3 601 171.7 601 128.8 601C86 601 43 601 21.5 601L0 601Z" fill="#8967ec"></path><path d="M0 560L21.5 561.3C43 562.7 86 565.3 128.8 562.5C171.7 559.7 214.3 551.3 257.2 550C300 548.7 343 554.3 385.8 554.8C428.7 555.3 471.3 550.7 514.2 552.2C557 553.7 600 561.3 642.8 563.2C685.7 565 728.3 561 771.2 557.2C814 553.3 857 549.7 878.5 547.8L900 546L900 601L878.5 601C857 601 814 601 771.2 601C728.3 601 685.7 601 642.8 601C600 601 557 601 514.2 601C471.3 601 428.7 601 385.8 601C343 601 300 601 257.2 601C214.3 601 171.7 601 128.8 601C86 601 43 601 21.5 601L0 601Z" fill="#9775fa"></path></svg>