<svg id="visual" viewBox="0 0 900 400" width="900" height="400" xmlns="http://www.w3.org/2000/svg" xmlns:xlink="http://www.w3.org/1999/xlink" version="1.1"><rect x="0" y="0" width="900" height="400" fill="#f3f0ff"></rect><path d="M0 271L21.5 276.5C43 282 86 293 128.8 295.8C171.7 298.7 214.3 293.3 257.2 287.7C300 282 343 276 385.8 279.8C428.7 283.7 471.3 297.3 514.2 300.3C557 303.3 600 295.7 642.8 295C685.7 294.3 728.3 300.7 771.2 297C814 293.3 857 279.7 878.5 272.8L900 266L900 401L878.5 401C857 401 814 401 771.2 401C728.3 401 685.7 401 642.8 401C600 401 557 401 514.2 401C471.3 401 428.7 401 385.8 401C343 401 300 401 257.2 401C214.3 401 171.7 401 128.8 401C86 401 43 401 21.5 401L0 401Z" fill="#5f3dc4"></path><path d="M0 330L21.5 324.3C43 318.7 86 307.3 128.8 307C171.7 306.7 214.3 317.3 257.2 318.2C300 319 343 310 385.8 311.2C428.7 312.3 471.3 323.7 514.2 327.5C557 331.3 600 327.7 642.8 325.3C685.7 323 728.3 322 771.2 316.7C814 311.3 857 301.7 878.5 296.8L900 292L900 401L878.5 401C857 401 814 401 771.2 401C728.3 401 685.7 401 642.8 401C600 401 557 401 514.2 401C471.3 401 428.7 401 385.8 401C343 401 300 401 257.2 401C214.3 401 171.7 401 128.8 401C86 401 43 401 21.5 401L0 401Z" fill="#7250d6"></path><path d="M0 360L21.5 357.3C43 354.7 86 349.3 128.8 343.2C171.7 337 214.3 330 257.2 328.2C300 326.3 343 329.7 385.8 329C428.7 328.3 471.3 323.7 514.2 328.5C557 333.3 600 347.7 642.8 354.3C685.7 361 728.3 360 771.2 354.7C814 349.3 857 339.7 878.5 334.8L900 330L900 401L878.5 401C857 401 814 401 771.2 401C728.3 401 685.7 401 642.8 401C600 401 557 401 514.2 401C471.3 401 428.7 401 385.8 401C343 401 300 401 257.2 401C214.3 401 171.7 401 128.8 401C86 401 43 401 21.5 401L0 401Z" fill="#8462e8"></path><path d="M0 362L21.5 364C43 366 86 370 128.8 368.8C171.7 367.7 214.3 361.3 257.2 357.5C300 353.7 343 352.3 385.8 352.8C428.7 353.3 471.3 355.7 514.2 358.3C557 361 600 364 642.8 367C685.7 370 728.3 373 771.2 372.5C814 372 857 368 878.5 366L900 364L900 401L878.5 401C857 401 814 401 771.2 401C728.3 401 685.7 401 642.8 401C600 401 557 401 514.2 401C471.3 401 428.7 401 385.8 401C343 401 300 401 257.2 401C214.3 401 171.7 401 128.8 401C86 401 43 401 21.5 401L0 401Z" fill="#9775fa"></path></svg>